<svg width="28" height="26" viewBox="0 0 28 26" fill="none" xmlns="http://www.w3.org/2000/svg">
<g clip-path="url(#clip0_1_266)">
<path d="M14 4.77083C10.8306 4.77083 8.22501 6.20972 6.22709 8.06181C4.35556 9.80208 3.06251 11.8681 2.40139 13.3264C3.06251 14.7847 4.35556 16.8507 6.22223 18.591C8.22501 20.4431 10.8306 21.8819 14 21.8819C17.1695 21.8819 19.775 20.4431 21.7729 18.591C23.6445 16.8507 24.9375 14.7847 25.5986 13.3264C24.9375 11.8681 23.6445 9.80208 21.7778 8.06181C19.775 6.20972 17.1695 4.77083 14 4.77083ZM4.63751 6.35556C6.92709 4.22639 10.0722 2.4375 14 2.4375C17.9278 2.4375 21.0729 4.22639 23.3625 6.35556C25.6375 8.47014 27.159 10.9931 27.8833 12.7285C28.0438 13.1125 28.0438 13.5403 27.8833 13.9243C27.159 15.6597 25.6375 18.1875 23.3625 20.2972C21.0729 22.4264 17.9278 24.2153 14 24.2153C10.0722 24.2153 6.92709 22.4264 4.63751 20.2972C2.36251 18.1875 0.840978 15.6597 0.121533 13.9243C-0.0388835 13.5403 -0.0388835 13.1125 0.121533 12.7285C0.840978 10.9931 2.36251 8.46528 4.63751 6.35556ZM14 17.2153C16.1486 17.2153 17.8889 15.475 17.8889 13.3264C17.8889 11.1778 16.1486 9.4375 14 9.4375C13.966 9.4375 13.9368 9.4375 13.9028 9.4375C13.966 9.68542 14 9.94792 14 10.2153C14 11.9313 12.6049 13.3264 10.8889 13.3264C10.6215 13.3264 10.359 13.2924 10.1111 13.2292C10.1111 13.2632 10.1111 13.2924 10.1111 13.3264C10.1111 15.475 11.8514 17.2153 14 17.2153ZM14 7.10417C15.6502 7.10417 17.2329 7.75972 18.3998 8.92661C19.5667 10.0935 20.2222 11.6762 20.2222 13.3264C20.2222 14.9766 19.5667 16.5593 18.3998 17.7262C17.2329 18.8931 15.6502 19.5486 14 19.5486C12.3498 19.5486 10.7671 18.8931 9.60023 17.7262C8.43334 16.5593 7.77778 14.9766 7.77778 13.3264C7.77778 11.6762 8.43334 10.0935 9.60023 8.92661C10.7671 7.75972 12.3498 7.10417 14 7.10417Z" fill="#D5CEB3"/>
</g>
<defs>
<clipPath id="clip0_1_266">
<rect width="28" height="24.8889" fill="white" transform="translate(0 0.881836)"/>
</clipPath>
</defs>
</svg>
